Coordinates
version=1
nRows=22
nColumns=24
inDegrees=yes

Units are S.I. units (second, meters, Newtons, ...)
Angles are in degrees.

endheader
time	pelvis_tilt	pelvis_list	pelvis_rotation	pelvis_tx	pelvis_ty	pelvis_tz	hip_flexion_r	hip_adduction_r	hip_rotation_r	knee_angle_r	ankle_angle_r	subtalar_angle_r	mtp_angle_r	hip_flexion_l	hip_adduction_l	hip_rotation_l	knee_angle_l	ankle_angle_l	subtalar_angle_l	mtp_angle_l	lumbar_extension	lumbar_bending	lumbar_rotation
      1.77000000	      5.87035725	     -5.32261879	     -6.95934257	     -0.65676112	      0.99297934	      0.04191203	    -24.44714906	      2.91306014	      1.83706815	     -3.87071288	     15.75130364	     11.11931197	      6.74575914	     15.23433557	     -7.96126238	    -19.17795920	     -0.97328282	      1.20324493	     11.15363579	     23.07458293	    -17.99641411	      5.73031948	      9.63975268
      1.77500000	      5.88289208	     -5.21755098	     -6.90483557	     -0.65053585	      0.99229071	      0.04105745	    -24.70726391	      2.69942273	      1.73481349	     -4.07982991	     15.76554837	     11.35117121	      7.02839510	     15.30577444	     -7.73620516	    -19.22684738	     -1.26834451	      0.85132242	     10.73602883	     23.06015607	    -17.96493277	      5.64461154	      9.53713532
      1.78000000	      5.91500014	     -5.08688107	     -6.82009295	     -0.64429788	      0.99166078	      0.04018577	    -24.97980431	      2.47377627	      1.60439314	     -4.29509106	     15.73230183	     11.55514558	      7.45344589	     15.37235526	     -7.48896210	    -19.16635770	     -1.64550911	      0.42437186	     10.24733236	     23.16865860	    -17.95201659	      5.52951370	      9.40556416
      1.78500000	      5.86667679	     -4.95667554	     -6.74961500	     -0.63809554	      0.99100184	      0.03932410	    -25.14872504	      2.26115239	      1.55969971	     -4.51989798	     15.40566050	     11.52396912	     10.28246566	     15.54218572	     -7.27002000	    -19.03472095	     -2.09930975	     -0.25839919	      9.64540297	     24.80841909	    -17.85887051	      5.42336628	      9.29990124
      1.79000000	      5.89466135	     -4.76086590	     -6.68911435	     -0.63184191	      0.99051493	      0.03851363	    -25.37267528	      1.97273369	      1.49915849	     -4.79896847	     15.36055075	     11.57532351	     10.36470678	     15.61628819	     -6.99142902	    -18.93421423	     -2.60185409	     -0.79387464	      9.25969657	     24.73557210	    -17.84070818	      5.22320605	      9.16428937
      1.79500000	      5.92861258	     -4.59983461	     -6.53330941	     -0.62566243	      0.99006395	      0.03752652	    -25.58190539	      1.75242836	      1.29357727	     -5.11822576	     15.30047687	     11.83646754	     10.69331718	     15.72609957	     -6.72757823	    -18.51522713	     -3.18235518	     -1.36785825	      8.47595210	     24.80770891	    -17.83934452	      5.08863924	      8.98763995
      1.80000000	      5.86682073	     -4.41258167	     -6.41972828	     -0.61952846	      0.98957770	      0.03661676	    -25.65605702	      1.51592623	      1.23108659	     -5.46754524	     14.96905631	     11.74710696	     13.31455737	     15.93685806	     -6.47200948	    -18.12357958	     -3.78234797	     -2.23834357	      7.66532054	     26.72603181	    -17.74118054	      4.92195748	      8.84238432
      1.80500000	      5.91188433	     -4.17099003	     -6.26824253	     -0.61331321	      0.98930470	      0.03566738	    -25.83839731	      1.22684783	      1.05849631	     -5.83884962	     14.85402911	     11.85831045	     13.50275926	     16.03330815	     -6.14894340	    -17.71907765	     -4.43428207	     -2.83192640	      7.04112411	     26.66193962	    -17.74754656	      4.68783518	      8.63577385
      1.81000000	      5.89384331	     -3.92665031	     -6.09770273	     -0.60716168	      0.98902621	      0.03468828	    -25.90577358	      0.95664979	      0.86460041	     -6.29262635	     14.72153415	     11.97634282	     13.85517454	     16.21827583	     -5.83460970	    -17.21933786	     -5.13725324	     -3.44614899	      6.32210106	     26.73007521	    -17.69427935	      4.46202566	      8.42578812
      1.81500000	      5.81945908	     -3.69940520	     -5.94208219	     -0.60108809	      0.98877868	      0.03374125	    -25.88423936	      0.71828338	      0.78165375	     -6.76649693	     14.25266496	     11.75034226	     17.03787629	     16.47156138	     -5.55925130	    -16.70310156	     -5.86119744	     -4.26683128	      5.47270987	     28.62362761	    -17.59715679	      4.25369042	      8.25615551
      1.82000000	      5.84822821	     -3.41918529	     -5.73121790	     -0.59492016	      0.98871433	      0.03272320	    -25.96084594	      0.43276580	      0.52701437	     -7.28581179	     14.05974106	     11.86668764	     17.25852909	     16.61731839	     -5.21156445	    -16.18118786	     -6.62852870	     -4.77148358	      4.82627080	     28.52912025	    -17.59988297	      3.98672436	      8.00646120
      1.82500000	      5.80507482	     -3.15886835	     -5.51075924	     -0.58882606	      0.98864219	      0.03169502	    -25.91692352	      0.18587741	      0.30231183	     -7.87751542	     13.83858569	     11.92396367	     17.64936418	     16.86236744	     -4.89797552	    -15.60643806	     -7.44942841	     -5.25048224	      4.11146710	     28.52208244	    -17.53829135	      3.74929312	      7.77160110
      1.83000000	      5.73455451	     -2.91108527	     -5.30348477	     -0.58273123	      0.98862354	      0.03069474	    -25.82611904	     -0.03916150	      0.15711109	     -8.46814911	     13.15930931	     11.60553462	     21.49226907	     17.14106782	     -4.61271074	    -15.06480237	     -8.30065062	     -5.73949994	      3.36952820	     29.65372505	    -17.45422344	      3.52447676	      7.57011175
      1.83500000	      5.74444167	     -2.62655920	     -5.07632497	     -0.57660179	      0.98878175	      0.02964979	    -25.76688950	     -0.31252948	     -0.14228578	     -9.18897395	     12.91862021	     11.73167241	     21.73063374	     17.31663363	     -4.27494327	    -14.53638847	     -9.14475215	     -6.05027486	      2.72322707	     29.52953950	    -17.45651257	      3.25429763	      7.34336921
      1.84000000	      5.70157219	     -2.36983515	     -4.81730584	     -0.57049830	      0.98892139	      0.02856183	    -25.62714122	     -0.53594111	     -0.42704320	     -9.95158655	     12.59822945	     11.77969018	     22.12958895	     17.57166765	     -3.96665345	    -13.96757712	    -10.03990475	     -6.28557729	      2.07243865	     29.43281424	    -17.41003014	      3.02802458	      7.09151007
      1.84500000	      5.66914961	     -2.16097449	     -4.58677467	     -0.56441691	      0.98916162	      0.02755213	    -25.46966020	     -0.71380400	     -0.62255521	    -10.72214627	     11.79660245	     11.45114050	     26.37275135	     17.80985402	     -3.72439333	    -13.45537057	    -10.96421217	     -6.35258501	      1.53829380	     29.35457436	    -17.38701420	      2.83994551	      6.91385233
      1.85000000	      5.68583802	     -1.89591570	     -4.34319444	     -0.55824849	      0.98951936	      0.02646660	    -25.32079274	     -0.96730692	     -0.96704733	    -11.60852752	     11.41161807	     11.60050571	     26.57527247	     17.95919512	     -3.40030145	    -12.96046020	    -11.82657688	     -6.43624928	      0.95391901	     29.23872300	    -17.40752549	      2.59489231	      6.70882671
      1.85500000	      5.66225677	     -1.67978352	     -4.07760765	     -0.55213460	      0.98987858	      0.02533412	    -25.08119346	     -1.16372005	     -1.30672724	    -12.57624817	     10.95893064	     11.71912690	     26.97997266	     18.15470641	     -3.11833063	    -12.42104104	    -12.70131681	     -6.42963144	      0.39866244	     29.07655074	    -17.39670308	      2.41418516	      6.49473346
      1.86000000	      5.63638644	     -1.49530236	     -3.85985692	     -0.54601267	      0.99032464	      0.02429344	    -24.81316893	     -1.33876398	     -1.51554576	    -13.53688581	     10.04024522	     11.41112887	     31.02278657	     18.32609853	     -2.88626491	    -11.98250776	    -13.57517380	     -6.16681772	      0.10968114	     27.94579241	    -17.38905387	      2.25381830	      6.34629258
      1.86500000	      5.68766532	     -1.26962696	     -3.62882118	     -0.53983029	      0.99088680	      0.02315171	    -24.57760924	     -1.58661130	     -1.87564671	    -14.62798016	      9.53318561	     11.65552643	     31.20172195	     18.36322933	     -2.57569900	    -11.54191284	    -14.34502754	     -6.00771173	     -0.34664560	     27.85788556	    -17.45873828	      2.05424196	      6.16975115
      1.87000000	      5.67345340	     -1.12384365	     -3.40459181	     -0.53377109	      0.99143749	      0.02202801	    -24.21421842	     -1.74420203	     -2.12547110	    -15.77798531	      8.73566655	     11.49271213	     33.76611882	     18.46942505	     -2.35097835	    -11.08631455	    -15.12900176	     -5.67366417	     -0.61460060	     26.70162676	    -17.47489803	      1.94656585	      6.05588202
      1.87500000	      5.74893860	     -0.89912055	     -3.19742372	     -0.52758904	      0.99214928	      0.02086114	    -23.91213159	     -2.02688382	     -2.50553050	    -17.00527840	      8.09208803	     11.76158884	     33.98207312	     18.39444561	     -2.02132773	    -10.72271100	    -15.75793889	     -5.49147389	     -0.95227774	     26.57102201	    -17.57454797	      1.74935242	      5.91473238
